<svg width="205.04" height="74.641" viewBox="0 0 205.04 74.641" xmlns="http://www.w3.org/2000/svg"><g id="svgGroup" stroke-linecap="round" fill-rule="evenodd" font-size="9pt" stroke="#49d49d" stroke-width="0.25mm" fill="#00b9ae" style="stroke:#49d49d;stroke-width:0.25mm;fill:#00b9ae"><path d="M 81.44 3.36 L 81.36 4.4 Q 80.897 4.136 79.288 4.09 A 25.599 25.599 0 0 0 78.56 4.08 Q 73.93 4.08 69.562 8.005 A 23.814 23.814 0 0 0 68.64 8.88 Q 63.84 13.68 63.84 20 A 9.66 9.66 0 0 0 64.8 24.158 A 11.792 11.792 0 0 0 65.24 25 Q 66.64 27.44 68.72 29.28 Q 70.8 31.12 73.2 33.4 Q 75.6 35.68 77.68 37.88 A 17.6 17.6 0 0 1 80.168 41.27 A 21.76 21.76 0 0 1 81.16 43.24 Q 82.56 46.4 82.56 49.92 A 22.045 22.045 0 0 1 77.177 64.348 A 30.848 30.848 0 0 1 74.56 67.12 Q 66.56 74.64 54.8 74.64 A 23.522 23.522 0 0 1 50.422 74.265 Q 44.241 73.09 42.24 68.24 A 10.708 10.708 0 0 1 41.489 64.281 Q 41.489 61.046 43.354 57.449 A 23.278 23.278 0 0 1 43.84 56.56 Q 47.52 50.16 54.48 47.92 A 20.189 20.189 0 0 1 56.468 47.402 Q 57.463 47.2 58.356 47.142 A 10.736 10.736 0 0 1 59.04 47.12 Q 60.632 47.12 61.439 47.551 A 1.839 1.839 0 0 1 61.8 47.8 Q 62.406 48.343 62.682 49.369 A 5.821 5.821 0 0 1 62.8 49.92 A 16.343 16.343 0 0 0 50.771 55.087 A 22.282 22.282 0 0 0 49.92 56 Q 45.84 60.56 45.84 65.2 A 8.306 8.306 0 0 0 46.307 68.085 Q 47.198 70.502 49.79 71.633 A 10.852 10.852 0 0 0 52.08 72.32 Q 53.28 72.56 54.8 72.56 Q 64.8 72.56 70.64 66.12 A 22.337 22.337 0 0 0 76.3 53.249 A 29.932 29.932 0 0 0 76.48 49.92 A 18.407 18.407 0 0 0 75.822 44.937 A 16.48 16.48 0 0 0 75.08 42.84 Q 73.68 39.6 71.6 37.48 Q 69.52 35.36 67.08 33.2 Q 64.64 31.04 62.56 29.28 Q 60.48 27.52 59.08 25.04 Q 57.68 22.56 57.68 19.76 A 16.48 16.48 0 0 1 60.659 10.394 A 24.825 24.825 0 0 1 64.28 6.2 A 25.606 25.606 0 0 1 69.48 2.362 A 18.477 18.477 0 0 1 78.48 0 A 3.241 3.241 0 0 1 79.391 0.121 A 2.303 2.303 0 0 1 80.72 1.12 A 4.894 4.894 0 0 1 81.212 2.1 A 3.684 3.684 0 0 1 81.44 3.36 Z M 129.68 3.36 L 129.6 4.4 Q 129.137 4.136 127.528 4.09 A 25.599 25.599 0 0 0 126.8 4.08 Q 122.17 4.08 117.802 8.005 A 23.814 23.814 0 0 0 116.88 8.88 Q 112.08 13.68 112.08 20 A 9.66 9.66 0 0 0 113.04 24.158 A 11.792 11.792 0 0 0 113.48 25 Q 114.88 27.44 116.96 29.28 Q 119.04 31.12 121.44 33.4 Q 123.84 35.68 125.92 37.88 A 17.6 17.6 0 0 1 128.408 41.27 A 21.76 21.76 0 0 1 129.4 43.24 Q 130.8 46.4 130.8 49.92 A 22.045 22.045 0 0 1 125.417 64.348 A 30.848 30.848 0 0 1 122.8 67.12 Q 114.8 74.64 103.04 74.64 A 23.522 23.522 0 0 1 98.662 74.265 Q 92.481 73.09 90.48 68.24 A 10.708 10.708 0 0 1 89.729 64.281 Q 89.729 61.046 91.594 57.449 A 23.278 23.278 0 0 1 92.08 56.56 Q 95.76 50.16 102.72 47.92 A 20.189 20.189 0 0 1 104.708 47.402 Q 105.703 47.2 106.596 47.142 A 10.736 10.736 0 0 1 107.28 47.12 Q 108.872 47.12 109.679 47.551 A 1.839 1.839 0 0 1 110.04 47.8 Q 110.646 48.343 110.922 49.369 A 5.821 5.821 0 0 1 111.04 49.92 A 16.343 16.343 0 0 0 99.011 55.087 A 22.282 22.282 0 0 0 98.16 56 Q 94.08 60.56 94.08 65.2 A 8.306 8.306 0 0 0 94.547 68.085 Q 95.438 70.502 98.03 71.633 A 10.852 10.852 0 0 0 100.32 72.32 Q 101.52 72.56 103.04 72.56 Q 113.04 72.56 118.88 66.12 A 22.337 22.337 0 0 0 124.54 53.249 A 29.932 29.932 0 0 0 124.72 49.92 A 18.407 18.407 0 0 0 124.062 44.937 A 16.48 16.48 0 0 0 123.32 42.84 Q 121.92 39.6 119.84 37.48 Q 117.76 35.36 115.32 33.2 Q 112.88 31.04 110.8 29.28 Q 108.72 27.52 107.32 25.04 Q 105.92 22.56 105.92 19.76 A 16.48 16.48 0 0 1 108.899 10.394 A 24.825 24.825 0 0 1 112.52 6.2 A 25.606 25.606 0 0 1 117.72 2.362 A 18.477 18.477 0 0 1 126.72 0 A 3.241 3.241 0 0 1 127.631 0.121 A 2.303 2.303 0 0 1 128.96 1.12 A 4.894 4.894 0 0 1 129.452 2.1 A 3.684 3.684 0 0 1 129.68 3.36 Z M 137.957 68.929 A 0.836 0.836 0 0 0 138.4 69.04 A 0.761 0.761 0 0 0 138.82 68.902 Q 139.115 68.709 139.41 68.243 A 5.503 5.503 0 0 0 139.68 67.76 Q 143.493 59.51 153.75 39.004 A 4761.878 4761.878 0 0 1 160 26.56 Q 166.48 13.84 167.84 11.08 A 17.313 17.313 0 0 0 168.177 10.355 Q 168.647 9.278 168.901 8.272 A 9.281 9.281 0 0 0 169.2 6 Q 169.2 4.574 168.489 4.165 A 1.359 1.359 0 0 0 167.8 4 A 2.083 2.083 0 0 0 166.813 4.239 Q 166.08 4.626 165.56 5.64 A 33.959 33.959 0 0 0 165.176 6.436 Q 163.526 9.925 155.821 26.824 A 15524.42 15524.42 0 0 0 153.08 32.84 A 10346.356 10346.356 0 0 1 149.892 39.835 Q 141.154 58.983 139.48 62.4 Q 137.52 66.4 137.52 67.76 A 2.885 2.885 0 0 0 137.544 68.15 Q 137.623 68.725 137.957 68.929 Z M 29.84 27.12 Q 29.84 30.56 23.32 35.56 Q 17.819 39.779 12.46 40.894 A 19.227 19.227 0 0 1 10.48 41.2 A 25.516 25.516 0 0 1 16.776 45.275 A 33.726 33.726 0 0 1 20.36 48.92 Q 24.057 53.272 24.73 56.526 A 6.882 6.882 0 0 1 24.88 57.92 A 4.366 4.366 0 0 1 24.717 59.133 A 3.711 3.711 0 0 1 24.32 60.04 A 3.779 3.779 0 0 1 23.516 60.963 Q 23.142 61.278 22.661 61.545 A 6.613 6.613 0 0 1 22.56 61.6 Q 22.56 55.977 16.033 49.76 A 41.24 41.24 0 0 0 15.52 49.28 A 26.194 26.194 0 0 0 9.324 44.966 A 20.927 20.927 0 0 0 0 42.8 Q 0.231 41.8 1.609 40.874 A 8.122 8.122 0 0 1 1.72 40.8 Q 3.2 39.84 4.96 39.84 A 23.558 23.558 0 0 0 18.875 35.271 A 30.03 30.03 0 0 0 20.44 34.08 A 33.758 33.758 0 0 0 23.496 31.294 Q 26.53 28.132 27.276 25.228 A 7.481 7.481 0 0 0 27.52 23.36 Q 27.704 23.421 27.981 23.53 A 21.517 21.517 0 0 1 28.16 23.6 Q 28.531 23.749 29.108 24.585 A 10.109 10.109 0 0 1 29.2 24.72 Q 29.84 25.68 29.84 27.12 Z M 175.2 57.76 Q 175.2 54.32 181.68 49.32 Q 188.16 44.32 194.56 43.68 A 25.516 25.516 0 0 1 188.264 39.605 A 33.726 33.726 0 0 1 184.68 35.96 Q 180.983 31.609 180.31 28.354 A 6.882 6.882 0 0 1 180.16 26.96 A 4.322 4.322 0 0 1 180.289 25.881 A 3.452 3.452 0 0 1 180.72 24.88 A 4.082 4.082 0 0 1 181.527 23.966 Q 181.907 23.643 182.392 23.365 A 6.925 6.925 0 0 1 182.4 23.36 Q 182.4 29.2 189.44 35.64 Q 196.48 42.08 205.04 42.08 A 2.026 2.026 0 0 1 204.724 42.745 Q 204.356 43.271 203.615 43.809 A 8.892 8.892 0 0 1 203.28 44.04 Q 201.76 45.04 200 45.04 A 22.59 22.59 0 0 0 190.692 47.09 A 27.216 27.216 0 0 0 189 47.92 Q 183.79 50.699 180.739 54.371 A 20.262 20.262 0 0 0 180.52 54.64 A 20.001 20.001 0 0 0 179.031 56.743 Q 177.454 59.335 177.44 61.561 A 6.341 6.341 0 0 0 177.44 61.6 A 2.018 2.018 0 0 1 176.803 61.267 Q 176.348 60.921 175.92 60.28 A 4.295 4.295 0 0 1 175.223 58.266 A 5.4 5.4 0 0 1 175.2 57.76 Z M 82.753 21.269 A 0.326 0.326 0 0 0 82.96 20.96 Q 82.96 17.76 83.6 14.88 A 34.746 34.746 0 0 1 84.385 11.937 Q 85.105 9.662 86.076 7.839 A 15.703 15.703 0 0 1 88.8 4.08 Q 88.8 3.2 88.24 2.64 A 2.2 2.2 0 0 0 88.222 2.623 A 1.85 1.85 0 0 0 86.88 2.08 Q 84.505 2.08 82.862 5.108 A 15.002 15.002 0 0 0 82 7.04 A 24.691 24.691 0 0 0 80.981 10.687 Q 80.16 14.71 80.16 20.16 A 0.841 0.841 0 0 0 80.237 20.519 Q 80.321 20.701 80.498 20.847 A 1.574 1.574 0 0 0 80.8 21.04 A 2.978 2.978 0 0 0 81.086 21.165 A 3.146 3.146 0 0 0 82.2 21.36 Q 82.563 21.36 82.753 21.269 Z M 130.993 21.269 A 0.326 0.326 0 0 0 131.2 20.96 Q 131.2 17.76 131.84 14.88 A 34.746 34.746 0 0 1 132.625 11.937 Q 133.345 9.662 134.316 7.839 A 15.703 15.703 0 0 1 137.04 4.08 Q 137.04 3.2 136.48 2.64 A 2.2 2.2 0 0 0 136.462 2.623 A 1.85 1.85 0 0 0 135.12 2.08 Q 132.745 2.08 131.102 5.108 A 15.002 15.002 0 0 0 130.24 7.04 A 24.691 24.691 0 0 0 129.221 10.687 Q 128.4 14.71 128.4 20.16 A 0.841 0.841 0 0 0 128.477 20.519 Q 128.561 20.701 128.738 20.847 A 1.574 1.574 0 0 0 129.04 21.04 A 2.978 2.978 0 0 0 129.326 21.165 A 3.146 3.146 0 0 0 130.44 21.36 Q 130.803 21.36 130.993 21.269 Z" vector-effect="non-scaling-stroke"/></g></svg>